<svg width="112" height="112" viewBox="0 0 112 112" fill="none" xmlns="http://www.w3.org/2000/svg">
<path d="M57.0267 9.33325H54.9733C52.498 9.33325 50.124 10.3166 48.3737 12.0669C46.6233 13.8173 45.64 16.1912 45.64 18.6666V19.5066C45.6383 21.1433 45.2063 22.7508 44.3872 24.1678C43.5681 25.5848 42.3908 26.7616 40.9733 27.5799L38.9667 28.7466C37.5478 29.5658 35.9383 29.997 34.3 29.997C32.6617 29.997 31.0522 29.5658 29.6333 28.7466L28.9333 28.3733C26.7916 27.1378 24.2472 26.8027 21.8587 27.4414C19.4701 28.0801 17.4326 29.6404 16.1933 31.7799L15.1667 33.5533C13.9312 35.695 13.5961 38.2393 14.2348 40.6279C14.8735 43.0165 16.4338 45.054 18.5733 46.2933L19.2733 46.7599C20.684 47.5743 21.8569 48.7437 22.6756 50.1518C23.4943 51.5599 23.9302 53.1578 23.94 54.7866V57.1666C23.9465 58.8112 23.5184 60.4284 22.6989 61.8543C21.8794 63.2802 20.6976 64.4643 19.2733 65.2866L18.5733 65.7066C16.4338 66.9458 14.8735 68.9834 14.2348 71.3719C13.5961 73.7605 13.9312 76.3049 15.1667 78.4466L16.1933 80.2199C17.4326 82.3594 19.4701 83.9198 21.8587 84.5585C24.2472 85.1972 26.7916 84.862 28.9333 83.6266L29.6333 83.2533C31.0522 82.4341 32.6617 82.0028 34.3 82.0028C35.9383 82.0028 37.5478 82.4341 38.9667 83.2533L40.9733 84.4199C42.3908 85.2383 43.5681 86.415 44.3872 87.832C45.2063 89.249 45.6383 90.8565 45.64 92.4933V93.3333C45.64 95.8086 46.6233 98.1826 48.3737 99.9329C50.124 101.683 52.498 102.667 54.9733 102.667H57.0267C59.502 102.667 61.876 101.683 63.6263 99.9329C65.3767 98.1826 66.36 95.8086 66.36 93.3333V92.4933C66.3617 90.8565 66.7937 89.249 67.6128 87.832C68.4319 86.415 69.6092 85.2383 71.0267 84.4199L73.0333 83.2533C74.4522 82.4341 76.0617 82.0028 77.7 82.0028C79.3383 82.0028 80.9478 82.4341 82.3667 83.2533L83.0667 83.6266C85.2084 84.862 87.7528 85.1972 90.1413 84.5585C92.5299 83.9198 94.5674 82.3594 95.8067 80.2199L96.8333 78.3999C98.0688 76.2582 98.4039 73.7138 97.7652 71.3253C97.1265 68.9367 95.5662 66.8992 93.4267 65.6599L92.7267 65.2866C91.3024 64.4643 90.1206 63.2802 89.3011 61.8543C88.4816 60.4284 88.0535 58.8112 88.06 57.1666V54.8333C88.0535 53.1886 88.4816 51.5715 89.3011 50.1456C90.1206 48.7196 91.3024 47.5356 92.7267 46.7133L93.4267 46.2933C95.5662 45.054 97.1265 43.0165 97.7652 40.6279C98.4039 38.2393 98.0688 35.695 96.8333 33.5533L95.8067 31.7799C94.5674 29.6404 92.5299 28.0801 90.1413 27.4414C87.7528 26.8027 85.2084 27.1378 83.0667 28.3733L82.3667 28.7466C80.9478 29.5658 79.3383 29.997 77.7 29.997C76.0617 29.997 74.4522 29.5658 73.0333 28.7466L71.0267 27.5799C69.6092 26.7616 68.4319 25.5848 67.6128 24.1678C66.7937 22.7508 66.3617 21.1433 66.36 19.5066V18.6666C66.36 16.1912 65.3767 13.8173 63.6263 12.0669C61.876 10.3166 59.502 9.33325 57.0267 9.33325Z" stroke="white" stroke-width="6" stroke-linecap="round" stroke-linejoin="round"/>
<path d="M56 70C63.732 70 70 63.732 70 56C70 48.268 63.732 42 56 42C48.268 42 42 48.268 42 56C42 63.732 48.268 70 56 70Z" stroke="white" stroke-width="6" stroke-linecap="round" stroke-linejoin="round"/>
</svg>
