<svg width="112" height="112" viewBox="0 0 112 112" fill="none" xmlns="http://www.w3.org/2000/svg">
<path d="M47.917 98C48.7362 99.4187 49.9144 100.597 51.3332 101.416C52.752 102.235 54.3614 102.666 55.9997 102.666C57.6379 102.666 59.2473 102.235 60.6661 101.416C62.0849 100.597 63.2631 99.4187 64.0823 98" stroke="white" stroke-width="6" stroke-linecap="round" stroke-linejoin="round"/>
<path d="M15.2222 71.5215C14.6126 72.1897 14.2102 73.0206 14.0642 73.9132C13.9181 74.8059 14.0346 75.7217 14.3995 76.5494C14.7644 77.377 15.3619 78.0808 16.1194 78.575C16.8769 79.0693 17.7617 79.3328 18.6662 79.3335H93.3329C94.2372 79.3338 95.1222 79.0713 95.8802 78.578C96.6382 78.0846 97.2365 77.3817 97.6023 76.5546C97.9682 75.7275 98.0858 74.8119 97.9409 73.9192C97.796 73.0265 97.3948 72.1951 96.7862 71.5262C90.5795 65.1282 83.9995 58.3288 83.9995 37.3335C83.9995 29.9074 81.0495 22.7855 75.7985 17.5345C70.5475 12.2835 63.4256 9.3335 55.9995 9.3335C48.5735 9.3335 41.4515 12.2835 36.2005 17.5345C30.9495 22.7855 27.9995 29.9074 27.9995 37.3335C27.9995 58.3288 21.4149 65.1282 15.2222 71.5215Z" stroke="white" stroke-width="6" stroke-linecap="round" stroke-linejoin="round"/>
</svg>
